<svg width="512" height="512" viewBox="0 0 512 512" xmlns="http://www.w3.org/2000/svg">
  <rect width="512" height="512" fill="#C4694A"/>
  <!-- left page -->
  <path d="M250 168
           C 208 140, 150 132, 108 137
           C 99 138, 96 146, 96 158
           L 96 356
           C 96 368, 99 374, 108 373
           C 150 368, 208 374, 250 402 Z"
        fill="#FDF8EF"/>
  <!-- right page -->
  <path d="M262 168
           C 304 140, 362 132, 404 137
           C 413 138, 416 146, 416 158
           L 416 356
           C 416 368, 413 374, 404 373
           C 362 368, 304 374, 262 402 Z"
        fill="#FDF8EF"/>
  <!-- text lines -->
  <g stroke="#C4694A" stroke-width="13" stroke-linecap="round" opacity="0.5">
    <line x1="138" y1="205" x2="223" y2="214"/>
    <line x1="138" y1="247" x2="223" y2="256"/>
    <line x1="138" y1="289" x2="223" y2="298"/>
    <line x1="289" y1="214" x2="374" y2="205"/>
    <line x1="289" y1="256" x2="374" y2="247"/>
    <line x1="289" y1="289" x2="374" y2="289"/>
  </g>
</svg>
